# xmcd
#
# Track frame offsets: 
#        150
#        37120
#        69903
#        94992
#        113301
#        117886
#        154298
#        194660
#
# Disc length: 2843 seconds
#
# Revision: 0
# Processed by: cddbd v1.4PL0 Copyright (c) Steve Scherf et al.
# Submitted via: ExactAudioCopy v0.90b4
#
DISCID=680b1908
DTITLE=John Hiatt - Madrid Theatre  12-01-01  disc 2
DYEAR=2001
DGENRE=Blues
TTITLE0=Memphis In The Meantime
TTITLE1=Riding With The King
TTITLE2=Tennesee Plates
TTITLE3=Have A Little Faith In Me
TTITLE4=intros
TTITLE5=Thing Called Love
TTITLE6=Farther Stars
TTITLE7=Here Comes The Sun
EXTD=
EXTT0=
EXTT1=
EXTT2=
EXTT3=
EXTT4=
EXTT5=
EXTT6=
EXTT7=
PLAYORDER=
